# xmcd CD database file
#
# Track frame offsets:
#	150
#	16147
#	33412
#
# Disc length: 655 seconds
#
# Revision: 0
# Processed by: cddbd v1.5PL3 Copyright (c) Steve Scherf et al.
# Submitted via: CDex 1.51
#
DISCID=17028d03
DTITLE=Berryz工房 - ファイティングポーズはダテじゃない！
DYEAR=2004
DGENRE=JPop
TTITLE0=ファイティングポーズはダテじゃない！
TTITLE1=夏わかめ
TTITLE2=ファイティングポーズはダテじゃない！(Instrumental)
EXTD=YEAR: 2004
EXTT0=
EXTT1=
EXTT2=
PLAYORDER=
